<svg width="12" height="12" viewBox="0 0 12 12" fill="none" xmlns="http://www.w3.org/2000/svg">
<path opacity="0.2" d="M10.7653 4.60972L8.08077 7.30316C8.61796 8.37801 8.00014 9.45285 7.60686 9.97504C7.57452 10.0175 7.53349 10.0526 7.4865 10.0779C7.43952 10.1032 7.38767 10.1182 7.33443 10.1219C7.28118 10.1256 7.22776 10.1179 7.17774 10.0992C7.12771 10.0806 7.08224 10.0515 7.04436 10.0139L1.98468 4.95754C1.94734 4.92024 1.91829 4.87548 1.89944 4.82618C1.88058 4.77689 1.87235 4.72417 1.87527 4.67148C1.87819 4.61878 1.8922 4.56729 1.91638 4.52038C1.94057 4.47348 1.97438 4.4322 2.01561 4.39925C3.40546 3.278 4.70624 3.9305 4.70624 3.9305L7.39077 1.23707C7.46109 1.16679 7.55643 1.12732 7.65585 1.12732C7.75526 1.12732 7.85061 1.16679 7.92093 1.23707L10.7653 4.07816C10.8003 4.11301 10.8281 4.15442 10.847 4.20003C10.866 4.24564 10.8758 4.29455 10.8758 4.34394C10.8758 4.39333 10.866 4.44224 10.847 4.48785C10.8281 4.53346 10.8003 4.57488 10.7653 4.60972Z" fill="#EA7308"/>
<path d="M11.0306 3.81423L8.18577 0.969853C8.11613 0.900191 8.03344 0.844931 7.94243 0.807229C7.85143 0.769527 7.75389 0.750122 7.65538 0.750122C7.55687 0.750122 7.45933 0.769527 7.36833 0.807229C7.27732 0.844931 7.19464 0.900191 7.12499 0.969853L4.61108 3.49173C4.1114 3.33517 2.97046 3.14626 1.77983 4.10767C1.69777 4.17366 1.63052 4.25619 1.58246 4.34989C1.53441 4.44359 1.50662 4.54637 1.50092 4.65152C1.49521 4.75667 1.51172 4.86185 1.54935 4.9602C1.58699 5.05855 1.64492 5.14787 1.71937 5.22235L3.98437 7.48642L1.98468 9.4847C1.91431 9.55506 1.87478 9.6505 1.87478 9.75001C1.87478 9.84952 1.91431 9.94496 1.98468 10.0153C2.05504 10.0857 2.15048 10.1252 2.24999 10.1252C2.3495 10.1252 2.44494 10.0857 2.5153 10.0153L4.51358 8.01563L6.77718 10.2792C6.84677 10.3491 6.92945 10.4046 7.0205 10.4425C7.11156 10.4803 7.20918 10.4999 7.3078 10.5C7.32561 10.5 7.34296 10.5 7.36077 10.5C7.46768 10.4926 7.57175 10.4623 7.6659 10.4111C7.76005 10.3599 7.84207 10.289 7.9064 10.2033C8.82702 8.97985 8.73843 7.98517 8.52468 7.39079L11.0311 4.87501C11.1007 4.80533 11.1559 4.72262 11.1936 4.6316C11.2313 4.54058 11.2506 4.44303 11.2506 4.34452C11.2505 4.24602 11.2311 4.14848 11.1933 4.05749C11.1556 3.96651 11.1003 3.88384 11.0306 3.81423ZM10.5 4.34485L7.81546 7.03829C7.76002 7.09394 7.72345 7.16559 7.71092 7.24313C7.69839 7.32068 7.71053 7.4002 7.74562 7.47048C8.18905 8.35782 7.66124 9.27938 7.3078 9.74954L2.24999 4.69126C2.81624 4.2347 3.35812 4.11423 3.77249 4.11423C4.03542 4.11064 4.29619 4.16222 4.53796 4.26563C4.60849 4.30093 4.68836 4.3131 4.76621 4.30039C4.84405 4.28768 4.91591 4.25075 4.97155 4.19485L7.65562 1.50001L10.5 4.34438V4.34485Z" fill="#EA7308"/>
</svg>
