<?xml version="1.0" encoding="UTF-8"?>
<svg width="1024px" height="1024px" viewBox="0 0 1024 1024" version="1.1" xmlns="http://www.w3.org/2000/svg" xmlns:xlink="http://www.w3.org/1999/xlink">
    <defs>
        <linearGradient x1="17.3542745%" y1="19.9668544%" x2="87.8399435%" y2="82.8735277%" id="linearGradient-1">
            <stop stop-color="#1B91F3" offset="0%"></stop>
            <stop stop-color="#0B68CB" offset="100%"></stop>
        </linearGradient>
        <radialGradient cx="17.2228571%" cy="9.71921754%" fx="17.2228571%" fy="9.71921754%" r="67.399987%" gradientTransform="translate(0.1722, 0.0972), scale(0.6271, 1), rotate(66.5117), translate(-0.1722, -0.0972)" id="radialGradient-2">
            <stop stop-color="#0B4186" stop-opacity="0" offset="53%"></stop>
            <stop stop-color="#0B4186" stop-opacity="0.45" offset="100%"></stop>
        </radialGradient>
        <radialGradient cx="28.3418209%" cy="70.203931%" fx="28.3418209%" fy="70.203931%" r="29.1949436%" gradientTransform="translate(0.2834, 0.702), scale(0.4897, 1), rotate(-128.005), translate(-0.2834, -0.702)" id="radialGradient-3">
            <stop stop-color="#EF3ACC" stop-opacity="0" offset="0%"></stop>
            <stop stop-color="#EF3ACC" stop-opacity="0.64" offset="100%"></stop>
        </radialGradient>
        <linearGradient x1="-27.604434%" y1="80.0940675%" x2="63.5071333%" y2="40.2902025%" id="linearGradient-4">
            <stop stop-color="#0F5DB0" offset="0%"></stop>
            <stop stop-color="#0F5DB0" stop-opacity="0" offset="100%"></stop>
        </linearGradient>
        <radialGradient cx="40.5342666%" cy="95.1225982%" fx="40.5342666%" fy="95.1225982%" r="99.4770238%" gradientTransform="translate(0.4053, 0.9512), scale(0.9073, 1), rotate(-64.2559), translate(-0.4053, -0.9512)" id="radialGradient-5">
            <stop stop-color="#094188" offset="2%"></stop>
            <stop stop-color="#0B4186" stop-opacity="0" offset="97%"></stop>
        </radialGradient>
        <linearGradient x1="89.7822972%" y1="46.9920966%" x2="60.9358074%" y2="96.8407692%" id="linearGradient-6">
            <stop stop-color="#E247C4" stop-opacity="0" offset="0%"></stop>
            <stop stop-color="#E247C4" stop-opacity="0.64" offset="100%"></stop>
        </linearGradient>
        <linearGradient x1="43.6003826%" y1="-24.5656489%" x2="51.3800507%" y2="82.5616997%" id="linearGradient-7">
            <stop stop-color="#EF3ACC" offset="10%"></stop>
            <stop stop-color="#EF3ACC" stop-opacity="0" offset="100%"></stop>
        </linearGradient>
        <linearGradient x1="50.0000019%" y1="14.6913066%" x2="50.0000019%" y2="99.2455893%" id="linearGradient-8">
            <stop stop-color="#FFFFFF" offset="0%"></stop>
            <stop stop-color="#BEE1FE" offset="91%"></stop>
            <stop stop-color="#96CEFD" offset="100%"></stop>
        </linearGradient>
        <path d="M458.353628,87.2886475 C458.353628,190.53629 355.741893,274.231169 229.178101,274.231169 C223.066932,274.231169 212.801764,272.660559 209.060503,278.756655 C205.319242,284.826131 213.560667,294.19655 218.3138,299.560583 C267.788978,355.516891 339.565267,362.558016 358.404713,364.408141 L361.373756,364.700967 C195.107331,380.779754 0.0558318147,274.590546 2.84299117e-14,90.0172496 C-0.170507809,59.2865346 8.38379856,29.1374776 24.6735944,3.07466874 L203.188987,165.166945 C215.890634,176.693625 237.286386,176.693625 249.988033,165.166945 L431.885206,0 C448.794107,26.0614779 458.353628,55.7699654 458.353628,87.2886475 Z" id="path-9"></path>
        <linearGradient x1="50.0011492%" y1="60.9602758%" x2="50.0011492%" y2="92.3948589%" id="linearGradient-11">
            <stop stop-color="#BCE0FD" offset="0%"></stop>
            <stop stop-color="#88CCFC" offset="100%"></stop>
        </linearGradient>
    </defs>
    <g>
        <path fill="url(#linearGradient-1)" d="M432.241911,218.615375 L432.321795,218.615375 C461.666062,116.059866 589.534635,66 719.839688,66 C809.882916,66 890.71279,94.4972544 946.126055,139.738809 C913.056505,141.297439 880.405017,147.784857 849.252696,158.985436 C894.028,175.623254 932.492422,201.218873 960.9979,232.883968 C939.491642,229.182386 917.683153,227.534577 895.865345,227.959174 C949.489196,305.61519 978.138467,397.778053 977.987286,492.141101 C977.987286,749.428316 769.354809,958 511.993343,958 C258.599477,958 46,745.901098 46,492.141101 C46,452.063925 51.3256382,410.682345 61.6706904,371.869643 C64.3867659,363.723767 68.167969,355.910648 73.187383,353.048944 C79.4716361,349.468485 85.1966972,360.143309 86.1153698,363.617285 C92.9295239,389.133043 102.09761,413.96066 113.502464,437.782022 C112.503907,384.594246 135.231068,336.144921 166.492564,294.24424 C187.342438,266.306016 206.674505,240.417572 215.594949,165.707115 C216.194083,160.689149 220.947215,157.08207 225.753604,158.65268 C293.602234,180.854184 329.86983,293.805002 324.237968,388.254566 C361.717147,393.618599 361.544064,354.473141 361.544064,354.473141 C349.561378,317.656977 357.549835,249.22896 432.10877,218.615375 L432.241911,218.615375 Z"></path>
        <path fill="url(#radialGradient-2)" opacity="0.9" d="M962.742047,373.506804 C974.072342,629.729199 763.37678,850.639489 506.454679,850.639489 C265.935544,850.639489 68.8469879,664.788409 51.019414,428.904083 C47.8386766,450.99245 46.1664262,473.272484 46.0133141,495.588456 C47.8373452,747.977498 259.917573,958 512.006657,958 C769.368123,958 978,749.428316 978,492.141101 C978,451.145517 972.687676,411.387788 962.742047,373.506804 Z"></path>
        <path fill="url(#radialGradient-3)" style="mix-blend-mode: screen;" d="M500.636419,252.569834 C495.617005,243.691894 472.437165,230.554674 462.305138,228.26531 C500.649734,105.478214 695.994143,67.7835741 815.554721,89.505909 C865.309496,98.5568819 927.273296,125.65656 946.126055,139.738809 C890.71279,94.4972544 809.869602,66 719.839688,66 C589.534635,66 461.666062,116.059866 432.321795,218.615375 L432.10877,218.615375 C357.549835,249.22896 349.561378,317.683598 361.544064,354.486451 C373.047442,310.575922 427.781689,256.616151 500.636419,252.569834 Z"></path>
        <path fill="url(#linearGradient-4)" d="M636.054085,167.770204 C531.378666,188.361167 497.174755,195.096156 462.145369,228.385102 C501.488522,124.258983 601.916744,103.14892 721.583835,150.613286 C693.102321,156.483109 664.592849,162.206518 636.054085,167.783514 L636.054085,167.770204 Z"></path>
        <path fill="url(#radialGradient-5)" d="M71.2967815,357.614361 C42.6981043,474.664737 64.7995029,612.239525 194.718447,727.69267 C156.040999,685.405993 108.815903,529.27671 213.025328,417.736779 C220.041857,410.216486 232.117741,415.740241 232.50385,426.015757 C241.091442,657.827146 428.194426,799.40832 643.909401,772.934225 C577.072642,769.180733 356.032028,691.781604 520.461108,661.16802 C606.403594,645.155784 741.155555,620.065954 741.155555,499.182225 C741.155555,303.228662 589.601206,245.941327 497.694004,254.45989 C434.798217,260.289782 378.812446,300.193924 361.584006,354.45983 C368.201111,375.849409 341.825888,390.823445 324.237968,388.307807 C329.883145,293.871553 293.615548,180.854184 225.753604,158.65268 C220.960529,157.08207 216.194083,160.689149 215.594949,165.707115 C206.674505,240.417572 187.342438,266.306016 166.505878,294.24424 C135.231068,336.158231 112.503907,384.594246 113.502464,437.782022 C102.09761,413.96066 92.9295239,389.133043 86.1153698,363.617285 C85.3564663,360.742271 81.1891544,352.716187 76.1564263,352.3435 C73.4270368,352.143846 71.9758003,354.805897 71.2967815,357.614361 Z"></path>
        <path fill="url(#linearGradient-6)" style="mix-blend-mode: screen;" d="M462.717875,673.027456 C589.255039,775.742688 843.727347,698.729557 843.727347,448.989256 C740.995786,604.66599 610.144855,712.053122 462.73119,673.027456 L462.717875,673.027456 Z"></path>
        <path fill="url(#linearGradient-7)" style="mix-blend-mode: screen;" d="M213.025328,417.736779 C214.175666,416.449678 215.625571,415.46605 217.245896,414.871082 C218.867553,414.277444 220.609037,414.091101 222.318567,414.329354 C129.040014,528.065477 204.277967,727.812463 255.91003,776.88737 C258.799189,785.059866 206.927472,742.560224 199.777803,732.617464 C160.501221,699.301898 104.209226,534.214814 213.025328,417.736779 Z"></path>
        <path fill="url(#linearGradient-8)" d="M511.993343,682.437806 C638.557135,682.437806 741.168869,598.742927 741.168869,495.495285 C741.168869,392.247642 638.557135,308.552764 511.993343,308.552764 C404.016028,308.552764 282.764561,378.777665 282.817799,498.223887 C282.871073,682.797183 477.922573,788.986391 644.188997,772.907604 C631.700376,771.456786 553.786289,767.317297 501.129041,707.76722 C496.375909,702.403187 488.134484,693.032768 491.875745,686.949982 C495.603691,680.867196 505.882173,682.424496 511.980029,682.424496 L511.993343,682.437806 Z"></path>
        <path fill="rgba(255, 255, 255, 0.6)" d="M716.20494,410.549242 L535.079985,583.822132 C519.009871,595.24233 501.901259,596.067566 485.018985,585.712188 L307.369009,411.188134 C312.437685,403.044921 318.134787,395.310332 324.411051,388.054912 L343.050785,405.491345 C389.703376,449.20222 427.422208,484.514325 480.585392,529.875671 C504.577392,550.346843 512.033285,549.947535 535.572606,529.875671 C596.391394,477.96568 640.873788,438.70043 698.696904,387.069953 C705.140927,394.4252 710.99114,402.280912 716.191626,410.562552 L716.20494,410.549242 Z"></path>
        <g transform="translate(282.8152, 408.2066)">
            <mask id="mask-10" fill="white">
                <use xlink:href="#path-9"></use>
            </mask>
            <g mask="url(#mask-10)">
                <g transform="translate(-53, -128)" id="Path">
                    <polygon fill="url(#linearGradient-11)" fill-rule="nonzero" opacity="0.7" points="0 0 579.256353 0 579.256353 525.0496 0 525.0496"></polygon>
                    <path fill="#458FCD" d="M229.055699,294.582547 C195.304467,259.470097 94.2238539,142.805718 94.2238539,142.805718 L102.039228,143.151785 L260.290567,261.306912 C272.140112,269.918646 289.049014,269.825475 300.792046,261.107258 L455.967829,143.311508 L464.19594,142.659305 C464.19594,142.659305 366.417223,256.555151 328.964672,294.076758 C291.512121,331.598365 262.806931,329.694998 229.055699,294.582547 Z"></path>
                </g>
            </g>
        </g>
        <path fill="white" d="M544.146884,215.034917 C568.671448,207.31497 566.514564,183.050376 566.514564,183.050376 C566.514564,183.050376 554.252282,168.60875 529.954058,176.608213 C507.213583,184.101886 503.685347,200.300466 503.685347,200.300466 C503.685347,200.300466 516.107398,223.859616 544.146884,215.034917 Z" ></path>
    </g>
</svg>