<svg width="19" height="21" viewBox="0 0 19 21" fill="none" xmlns="http://www.w3.org/2000/svg">
<path d="M7.27148 16.4604L6.15088 17.7969H2.57324C1.71549 17.7969 1.0708 17.5811 0.63916 17.1494C0.213053 16.7178 0 16.0675 0 15.1987V2.60645C0 1.74316 0.213053 1.09294 0.63916 0.655762C1.0708 0.218587 1.71549 0 2.57324 0H11.3887C12.2464 0 12.8883 0.218587 13.3145 0.655762C13.7461 1.09294 13.9619 1.74316 13.9619 2.60645V8.5166L12.6255 10.1021V2.63135C12.6255 2.21631 12.5148 1.89811 12.2935 1.67676C12.0776 1.44987 11.7539 1.33643 11.3223 1.33643H2.64795C2.21631 1.33643 1.88981 1.44987 1.66846 1.67676C1.4471 1.89811 1.33643 2.21631 1.33643 2.63135V15.1738C1.33643 15.5889 1.4471 15.9071 1.66846 16.1284C1.88981 16.3498 2.21631 16.4604 2.64795 16.4604H7.27148ZM3.84326 4.80615C3.68831 4.80615 3.56104 4.75635 3.46143 4.65674C3.36735 4.55713 3.32031 4.43538 3.32031 4.2915C3.32031 4.14762 3.36735 4.02865 3.46143 3.93457C3.56104 3.83496 3.68831 3.78516 3.84326 3.78516H10.1353C10.2791 3.78516 10.4009 3.83496 10.5005 3.93457C10.6001 4.02865 10.6499 4.14762 10.6499 4.2915C10.6499 4.43538 10.6001 4.55713 10.5005 4.65674C10.4009 4.75635 10.2791 4.80615 10.1353 4.80615H3.84326ZM3.84326 7.70312C3.68831 7.70312 3.56104 7.65332 3.46143 7.55371C3.36735 7.4541 3.32031 7.33236 3.32031 7.18848C3.32031 7.0446 3.36735 6.92562 3.46143 6.83154C3.56104 6.73193 3.68831 6.68213 3.84326 6.68213H10.1353C10.2791 6.68213 10.4009 6.73193 10.5005 6.83154C10.6001 6.92562 10.6499 7.0446 10.6499 7.18848C10.6499 7.33236 10.6001 7.4541 10.5005 7.55371C10.4009 7.65332 10.2791 7.70312 10.1353 7.70312H3.84326ZM3.84326 10.5918C3.68831 10.5918 3.56104 10.542 3.46143 10.4424C3.36735 10.3428 3.32031 10.221 3.32031 10.0771C3.32031 9.93327 3.36735 9.81429 3.46143 9.72021C3.56104 9.62061 3.68831 9.5708 3.84326 9.5708H10.1353C10.2791 9.5708 10.4009 9.62061 10.5005 9.72021C10.6001 9.81429 10.6499 9.93327 10.6499 10.0771C10.6499 10.221 10.6001 10.3428 10.5005 10.4424C10.4009 10.542 10.2791 10.5918 10.1353 10.5918H3.84326ZM10.1353 12.4678C10.2127 12.4678 10.2819 12.4816 10.3428 12.5093C10.4036 12.5369 10.4562 12.5757 10.5005 12.6255L9.77832 13.4888H3.84326C3.68831 13.4888 3.56104 13.4417 3.46143 13.3477C3.36735 13.248 3.32031 13.1263 3.32031 12.9824C3.32031 12.8385 3.36735 12.7168 3.46143 12.6172C3.56104 12.5176 3.68831 12.4678 3.84326 12.4678H10.1353ZM8.4917 19.9468L6.68213 20.8267C6.58805 20.8765 6.49674 20.8599 6.4082 20.7769C6.31966 20.6994 6.29199 20.6108 6.3252 20.5112L6.93945 18.6353L14.9746 9.06445L16.5352 10.376L8.4917 19.9468ZM17.1909 9.62061L15.6138 8.30078L16.3691 7.4126C16.5573 7.19678 16.7565 7.07227 16.9668 7.03906C17.1826 7.00033 17.3901 7.06673 17.5894 7.23828L17.8965 7.49561C18.1012 7.66715 18.2064 7.86084 18.2119 8.07666C18.2174 8.28695 18.1261 8.50553 17.938 8.73242L17.1909 9.62061Z" fill="#737584"/>
</svg>
